<svg version="1.1" id="Layer_1" xmlns="http://www.w3.org/2000/svg" xmlns:xlink="http://www.w3.org/1999/xlink" x="0px" y="0px"
	 width="100%" viewBox="0 0 326 326" enable-background="new 0 0 326 326" xml:space="preserve">
<path fill="#FEFEFE" opacity="1.000000" stroke="none" 
	d="
M99.000000,327.000000 
	C66.345825,327.000000 33.691643,327.000000 1.018733,327.000000 
	C1.018733,218.387375 1.018733,109.774734 1.018733,1.081048 
	C109.571030,1.081048 218.142151,1.081048 326.856628,1.081048 
	C326.856628,109.666534 326.856628,218.333237 326.856628,327.000000 
	C304.920135,327.000000 282.928741,327.000000 260.459351,326.612457 
	C259.590607,324.966278 259.204163,323.706238 258.808411,322.449188 
	C254.281357,308.069183 249.476288,293.748230 240.598541,281.377869 
	C237.660217,277.283539 236.506775,273.406464 237.336655,268.693939 
	C239.046829,267.827057 240.697586,267.057678 242.285538,266.175262 
	C270.217621,250.653732 286.217682,227.712219 286.118927,194.993668 
	C286.086884,184.384720 285.320190,173.779205 285.182343,163.168320 
	C285.153229,160.927536 286.000275,158.434341 287.146515,156.466980 
	C289.949890,151.655441 289.623901,142.168274 286.395721,139.645386 
	C284.713226,138.330505 283.384216,136.563354 281.899017,134.640533 
	C275.591797,122.626274 269.281128,110.971977 262.898102,99.184113 
	C262.904999,99.179756 264.001251,98.780075 264.669495,98.009308 
	C266.283539,96.147560 268.975342,94.019554 268.841003,92.172920 
	C268.700562,90.242561 265.982758,88.203537 263.979492,86.800430 
	C262.432587,85.717003 260.283783,85.235710 258.342712,85.016167 
	C249.090942,83.969795 239.826294,83.017609 230.550964,82.206787 
	C224.892426,81.712135 221.904541,79.245354 220.813858,73.797112 
	C218.400177,61.740131 215.488953,49.761196 213.641632,37.619438 
	C212.249008,28.466095 206.847595,24.325697 198.740417,21.742785 
	C177.024017,14.824026 154.657562,17.667341 132.534256,17.107576 
	C129.315735,17.026138 126.102951,19.448484 122.780243,20.287415 
	C107.570824,24.127544 92.751320,28.818962 79.722588,38.000992 
	C78.768929,38.673084 76.636482,38.380863 75.386528,37.807652 
	C68.049377,34.442924 60.555611,33.223660 52.563919,34.950840 
	C37.845310,38.131863 26.826780,51.387928 26.322142,66.768768 
	C25.848564,81.202797 35.612007,94.687691 49.749031,98.391365 
	C56.326744,100.114624 63.116222,100.740158 69.326187,96.115295 
	C70.700378,96.155365 71.807457,96.080688 73.017639,96.393143 
	C71.944450,97.625473 70.881477,98.764305 69.573761,99.268867 
	C60.081539,102.931320 50.539963,106.465858 40.655666,110.059540 
	C36.164570,112.709000 32.031807,115.339783 27.565960,118.113564 
	C24.049643,123.013229 27.315590,124.558670 31.253315,125.988205 
	C31.477278,126.095276 31.973316,126.116341 32.165009,126.396042 
	C33.236580,126.786385 34.116459,126.897026 35.319172,127.211510 
	C40.604198,128.400848 45.566387,129.386353 51.766216,130.617645 
	C50.542149,131.169952 50.051189,131.295975 49.673840,131.575409 
	C28.604805,147.177658 24.676842,178.290848 43.283333,197.991333 
	C45.303719,200.130508 46.038269,204.932343 45.273170,207.971420 
	C43.301090,215.804794 44.406754,223.113678 46.757133,230.486526 
	C46.865932,230.827835 47.387829,231.037445 47.754951,231.339310 
	C48.768223,230.175247 49.645130,229.167847 50.522041,228.160446 
	C50.911762,228.304428 51.301479,228.448395 51.691200,228.592377 
	C50.310043,235.328049 48.928886,242.063736 47.278862,250.110626 
	C54.042049,249.098633 60.413071,248.145325 67.512268,247.083054 
	C81.197182,261.356415 99.209396,270.164215 119.324661,275.955322 
	C120.977333,276.529663 122.307312,276.954010 123.842003,277.443634 
	C108.757401,290.760468 101.194191,307.545776 99.000000,327.000000 
z"/>
<path fill="#182E33" opacity="1.000000" stroke="none" 
	d="
M140.000000,327.000000 
	C128.312439,327.000000 116.624878,327.000000 104.479416,326.595551 
	C104.992836,322.169891 106.012566,318.159637 106.926735,314.125488 
	C110.109573,300.079803 117.046310,288.296417 128.375824,278.906647 
	C130.117874,278.660553 131.505569,278.434784 132.997467,278.539429 
	C134.737534,279.573547 136.373428,280.277191 137.878418,281.292236 
	C138.583527,283.049042 139.298080,285.620483 140.278580,285.726227 
	C143.092529,286.029724 146.014145,285.334961 148.874832,285.397217 
	C148.337006,286.962769 147.880417,288.195648 147.287018,289.358734 
	C145.387634,293.081604 144.966003,296.092834 150.017471,297.732941 
	C155.751984,299.594879 161.351898,301.871429 167.400024,304.027649 
	C171.757462,304.551270 175.739517,307.795135 180.492630,303.248047 
	C181.376572,311.621490 182.188293,319.310760 183.000000,327.000000 
	C170.645767,327.000000 158.291550,327.000000 145.526215,326.615143 
	C146.468445,320.791443 147.821762,315.352600 149.175079,309.913757 
	C148.495529,309.673523 147.815979,309.433289 147.136429,309.193054 
	C144.757614,315.128693 142.378815,321.064362 140.000000,327.000000 
z"/>
<path fill="#010101" opacity="1.000000" stroke="none" 
	d="
M183.468658,327.000000 
	C182.188293,319.310760 181.376572,311.621490 180.492630,303.248047 
	C175.739517,307.795135 171.757462,304.551270 167.396637,303.682831 
	C167.004211,302.817596 167.004852,302.357056 167.431427,301.927521 
	C170.704620,302.287079 173.551880,302.615631 176.966278,303.009644 
	C176.966278,300.226959 176.966278,298.120880 176.987808,295.590942 
	C177.002457,294.342346 177.058807,293.511383 176.978851,292.693817 
	C176.250259,285.243988 172.697296,282.006531 165.311691,282.023407 
	C160.558228,282.034271 155.804764,282.039124 150.705078,282.034546 
	C149.896957,282.020782 149.435089,282.019135 148.630081,281.981354 
	C147.186783,281.638794 146.086624,281.332367 144.990295,280.647095 
	C144.994186,279.512054 144.994217,278.755798 144.997696,277.745178 
	C145.009323,277.152130 145.017487,276.813538 145.408295,276.441833 
	C147.862137,276.661163 149.933319,276.913635 152.094009,277.311188 
	C152.452667,277.378113 152.721786,277.299927 153.456543,277.168762 
	C159.272339,277.282593 164.622498,277.449463 170.099045,277.915833 
	C172.479553,277.873779 174.733673,277.532196 177.414154,277.104584 
	C180.898346,276.767334 183.956177,276.516113 187.115723,276.400024 
	C187.476227,276.416687 187.735016,276.298218 188.378357,276.078979 
	C189.815643,275.909332 190.868393,275.840454 192.089874,276.054932 
	C193.504120,275.930145 194.749634,275.521973 196.378525,274.993652 
	C199.584961,274.384033 202.408035,273.894592 205.538177,273.535950 
	C206.228180,273.478241 206.611130,273.289703 207.260574,272.976318 
	C208.105881,272.782532 208.684662,272.713623 209.578018,272.708252 
	C210.258286,272.577362 210.623993,272.382935 211.337891,272.063354 
	C213.123154,271.648315 214.560211,271.358398 216.021362,271.319763 
	C216.239105,271.799957 216.432770,272.028931 216.626419,272.257874 
	C216.731628,271.789337 216.836838,271.320801 217.196075,270.586670 
	C219.589249,269.731079 221.728409,269.141144 224.016357,268.853455 
	C225.375702,270.199036 228.763428,268.282074 228.007599,271.994537 
	C227.999161,272.001312 227.985947,272.019257 227.653870,272.051697 
	C226.207001,272.731354 225.092209,273.378632 223.582611,274.027100 
	C220.225830,274.806458 217.263855,275.584564 214.092255,276.417725 
	C214.434464,278.189850 214.705612,279.594025 214.624512,281.039612 
	C211.128265,284.247101 212.394379,288.868805 217.111053,291.279022 
	C217.776733,292.362976 218.321686,293.170715 218.902191,294.384033 
	C221.291824,305.526428 223.645905,316.263214 226.000000,327.000000 
	C211.979111,327.000000 197.958206,327.000000 183.468658,327.000000 
z"/>
<path fill="#0D0908" opacity="1.000000" stroke="none" 
	d="
M223.977432,274.025879 
	C225.092209,273.378632 226.207001,272.731354 227.719177,272.181641 
	C228.201904,272.325378 228.287201,272.371521 228.372513,272.417694 
	C228.253693,272.274384 228.134857,272.131073 228.016022,271.987762 
	C228.763428,268.282074 225.375702,270.199036 224.287460,268.639557 
	C251.877670,258.976990 279.844482,237.002563 280.721558,196.483276 
	C280.212555,195.146774 279.578308,194.030548 279.004272,192.543365 
	C282.849884,183.072098 283.687225,173.667648 282.413666,163.925461 
	C282.098145,161.511734 282.152954,158.123199 283.565186,156.588577 
	C287.374756,152.448914 286.276398,147.781876 285.473907,143.473221 
	C285.295807,142.516754 280.062622,142.414612 277.137665,142.096786 
	C275.842560,141.956070 274.499390,142.257874 273.153595,141.983170 
	C274.535736,139.979446 275.942322,138.351364 277.503265,136.544601 
	C277.194244,135.467651 276.774170,134.003571 276.193542,131.979874 
	C278.525513,133.215225 280.210510,134.107864 281.895538,135.000488 
	C283.384216,136.563354 284.713226,138.330505 286.395721,139.645386 
	C289.623901,142.168274 289.949890,151.655441 287.146515,156.466980 
	C286.000275,158.434341 285.153229,160.927536 285.182343,163.168320 
	C285.320190,173.779205 286.086884,184.384720 286.118927,194.993668 
	C286.217682,227.712219 270.217621,250.653732 242.285538,266.175262 
	C240.697586,267.057678 239.046829,267.827057 237.336655,268.693939 
	C236.506775,273.406464 237.660217,277.283539 240.598541,281.377869 
	C249.476288,293.748230 254.281357,308.069183 258.808411,322.449188 
	C259.204163,323.706238 259.590607,324.966278 259.990692,326.612457 
	C258.285645,327.000000 256.571289,327.000000 254.388611,326.619202 
	C249.192184,311.896088 245.385666,297.159485 236.415268,284.352936 
	C234.462204,287.505920 232.751205,290.268127 230.769470,292.906189 
	C230.000488,292.189850 229.502213,291.597717 229.148163,290.669434 
	C230.734756,285.931885 232.177139,281.530426 233.728943,276.795135 
	C229.315765,276.702881 225.602066,278.580353 223.977432,274.025879 
z"/>
<path fill="#192C32" opacity="1.000000" stroke="none" 
	d="
M231.040222,293.030334 
	C232.751205,290.268127 234.462204,287.505920 236.415268,284.352936 
	C245.385666,297.159485 249.192184,311.896088 253.960144,326.619202 
	C248.977905,327.000000 243.955811,327.000000 238.468643,326.583679 
	C237.867157,325.185608 237.832993,324.176453 237.578476,323.226318 
	C235.057343,313.814453 232.499741,304.412384 230.071732,294.750366 
	C230.474091,294.005554 230.757156,293.517944 231.040222,293.030334 
z"/>
<path fill="#192C31" opacity="1.000000" stroke="none" 
	d="
M226.449982,327.000000 
	C223.645905,316.263214 221.291824,305.526428 219.209412,294.208099 
	C222.672119,290.327576 224.706894,293.347534 227.132629,295.334961 
	C229.849014,306.112701 232.424500,316.556366 235.000000,327.000000 
	C232.299988,327.000000 229.599976,327.000000 226.449982,327.000000 
z"/>
<path fill="#070A0B" opacity="1.000000" stroke="none" 
	d="
M128.021454,278.926971 
	C117.046310,288.296417 110.109573,300.079803 106.926735,314.125488 
	C106.012566,318.159637 104.992836,322.169891 104.010757,326.595551 
	C102.611107,327.000000 101.222221,327.000000 99.416664,327.000000 
	C101.194191,307.545776 108.757401,290.760468 123.842003,277.443634 
	C122.307312,276.954010 120.977333,276.529663 119.407120,275.613708 
	C120.291222,274.939484 121.453178,274.485352 122.531517,274.634735 
	C124.376724,274.890442 126.169571,275.523926 127.990143,276.365540 
	C128.004395,277.463898 128.012924,278.195435 128.021454,278.926971 
z"/>
<path fill="#030B10" opacity="1.000000" stroke="none" 
	d="
M235.375000,327.000000 
	C232.424500,316.556366 229.849014,306.112701 227.503387,295.334106 
	C228.473007,295.001953 229.212723,295.004761 229.952454,295.007538 
	C232.499741,304.412384 235.057343,313.814453 237.578476,323.226318 
	C237.832993,324.176453 237.867157,325.185608 238.001785,326.583679 
	C237.250000,327.000000 236.500000,327.000000 235.375000,327.000000 
z"/>
<path fill="#02080A" opacity="1.000000" stroke="none" 
	d="
M140.416656,327.000000 
	C142.378815,321.064362 144.757614,315.128693 147.136429,309.193054 
	C147.815979,309.433289 148.495529,309.673523 149.175079,309.913757 
	C147.821762,315.352600 146.468445,320.791443 145.057556,326.615143 
	C143.611115,327.000000 142.222214,327.000000 140.416656,327.000000 
z"/>
<path fill="#0A0A0A" opacity="1.000000" stroke="none" 
	d="
M281.899017,134.640533 
	C280.210510,134.107864 278.525513,133.215225 276.193542,131.979874 
	C276.774170,134.003571 277.194244,135.467651 277.503265,136.544601 
	C275.942322,138.351364 274.535736,139.979446 273.092102,142.319244 
	C272.280579,145.014740 271.506134,146.998550 270.424500,148.988358 
	C269.703796,149.010544 269.290253,149.026703 268.560852,148.914490 
	C264.496155,146.828812 260.747375,144.871506 256.958038,142.592972 
	C256.516510,141.799896 256.115570,141.328064 255.643188,140.603439 
	C254.996460,139.699997 254.421127,139.049347 253.887634,137.977722 
	C253.638229,134.493561 255.327393,133.692917 258.249786,134.114471 
	C259.031189,134.757965 259.551941,135.290344 260.052246,136.203339 
	C260.425232,139.914764 261.763550,141.693359 265.614716,139.768005 
	C266.309875,139.149628 266.721436,138.572968 267.479614,137.954025 
	C268.947235,137.245804 270.068237,136.579849 272.312469,135.246613 
	C269.711334,134.157593 268.340729,133.583755 266.730469,132.770935 
	C266.287994,131.419983 266.085114,130.308044 266.038177,128.853058 
	C267.647888,125.904358 266.692719,124.872932 263.687653,124.848877 
	C262.951111,123.825401 262.446564,122.982582 261.964569,121.758286 
	C262.658264,119.531723 263.329407,117.686646 264.173340,115.672874 
	C264.206512,114.728882 264.066925,113.953583 263.950623,112.769859 
	C263.291656,106.671928 259.662048,103.351234 254.620453,104.088867 
	C253.858231,104.041016 253.423065,104.007523 252.786041,103.722900 
	C251.722382,103.988876 250.860580,104.505966 249.826767,105.073524 
	C249.654739,105.123993 249.296219,105.119888 248.838318,105.082634 
	C241.217041,106.567017 234.038254,108.023430 226.912659,109.705086 
	C226.148865,109.885345 225.694733,111.377670 224.843689,112.478989 
	C223.487137,112.836304 222.383865,112.975990 220.958160,113.092239 
	C220.100571,113.348061 219.565384,113.627335 218.703079,113.966255 
	C217.933685,114.049225 217.491425,114.072540 216.855652,113.827377 
	C215.775436,114.026367 214.888718,114.493820 213.709503,115.100739 
	C212.595551,115.441902 211.774094,115.643608 210.796204,115.646294 
	C210.095139,115.625336 209.550507,115.803406 208.692932,116.045578 
	C207.956635,116.150467 207.533310,116.191254 206.954041,115.963013 
	C205.866150,115.795006 204.934189,115.896034 203.947357,115.859566 
	C203.806946,115.673111 203.721420,115.624153 203.635895,115.575188 
	C203.756256,115.717552 203.876602,115.859917 203.997650,116.302483 
	C203.997665,117.002266 203.997009,117.401855 203.747009,117.826347 
	C203.332703,117.824944 203.167740,117.798637 202.835724,117.521912 
	C196.350159,113.750809 190.513092,118.228043 184.415283,118.530724 
	C179.746857,118.762459 174.897568,119.942245 171.487091,123.899971 
	C171.335556,124.075813 170.846893,123.961128 170.076233,123.930237 
	C168.758636,123.847969 167.880066,123.817223 166.902771,123.426155 
	C165.779419,122.730377 164.663712,121.943817 163.744278,122.129448 
	C154.826126,123.930031 145.940857,125.893608 136.618042,127.870766 
	C134.467331,127.983192 132.744812,128.035522 130.979904,127.777252 
	C130.513809,127.136887 130.090103,126.807129 129.666382,126.477364 
	C129.441269,127.191772 129.216171,127.906181 128.547241,128.724274 
	C124.504791,128.926102 120.906136,129.024246 116.918915,129.085297 
	C115.369385,129.324997 114.208420,129.601791 112.608917,129.932281 
	C105.446152,130.296204 98.721916,130.606461 91.943489,130.591721 
	C90.926407,130.495377 89.963524,130.724014 88.544670,130.998596 
	C84.731583,131.059128 81.374474,131.073730 78.012222,130.703232 
	C78.004837,129.547821 78.002571,128.777527 78.445267,127.996452 
	C82.518982,127.668488 86.143402,127.285751 89.777275,127.046379 
	C100.862114,126.316200 112.024124,126.218910 123.021622,124.818901 
	C143.032776,122.271439 163.010941,119.330910 182.885513,115.878677 
	C207.386215,111.622902 231.820221,106.864441 255.011383,97.423714 
	C257.709686,96.325272 260.154022,94.602982 263.333069,92.824806 
	C255.660049,89.206360 232.789230,86.984192 225.962708,88.334984 
	C223.490952,91.625824 222.197830,95.150925 219.804626,96.225014 
	C208.788513,101.169182 197.784332,106.647461 186.186676,109.683533 
	C161.506622,116.144348 136.148804,118.106461 110.649857,116.900436 
	C101.245407,116.455643 91.880173,115.099983 82.509995,114.044914 
	C77.408447,113.470497 73.657166,111.233612 73.599739,104.862328 
	C71.300003,105.172081 69.358803,105.272484 67.497528,105.711647 
	C58.655308,107.797958 49.834858,109.976555 41.003651,111.774796 
	C41.005096,110.965157 41.009548,110.503014 41.014000,110.040871 
	C50.539963,106.465858 60.081539,102.931320 69.573761,99.268867 
	C70.881477,98.764305 71.944450,97.625473 72.998581,95.923424 
	C72.626450,81.388962 72.376465,67.711357 72.346863,53.995079 
	C72.567253,53.956398 73.013184,53.918770 73.017654,54.344948 
	C73.330460,56.227776 73.804169,57.671379 73.920227,59.143188 
	C74.662430,68.555801 75.405884,77.969803 75.972458,87.393959 
	C76.172920,90.728325 77.451714,92.991959 80.907166,92.937195 
	C98.568726,92.657257 116.323822,93.231560 133.860489,91.559357 
	C150.924210,89.932236 167.861755,86.411392 184.664627,82.830200 
	C194.939423,80.640350 204.855865,76.769165 214.988419,73.636040 
	C212.104294,60.337181 209.452530,48.405056 206.960648,36.439640 
	C206.212952,32.849361 204.372269,29.971310 200.945129,29.249853 
	C191.414017,27.243429 181.838547,24.899008 172.171692,24.205000 
	C154.236786,22.917404 136.374359,24.942375 118.708740,28.120340 
	C104.982643,30.589600 91.556435,34.195004 79.348068,41.305645 
	C77.286179,42.506573 75.246452,43.745560 73.132065,44.600937 
	C72.602570,43.808258 72.204376,43.250633 71.662674,42.974075 
	C57.291969,35.637379 39.964027,41.916622 33.709866,56.702892 
	C27.225754,72.032822 34.863716,90.283997 50.429836,94.761391 
	C56.274815,96.442612 62.828495,95.659927 69.059074,96.000549 
	C63.116222,100.740158 56.326744,100.114624 49.749031,98.391365 
	C35.612007,94.687691 25.848564,81.202797 26.322142,66.768768 
	C26.826780,51.387928 37.845310,38.131863 52.563919,34.950840 
	C60.555611,33.223660 68.049377,34.442924 75.386528,37.807652 
	C76.636482,38.380863 78.768929,38.673084 79.722588,38.000992 
	C92.751320,28.818962 107.570824,24.127544 122.780243,20.287415 
	C126.102951,19.448484 129.315735,17.026138 132.534256,17.107576 
	C154.657562,17.667341 177.024017,14.824026 198.740417,21.742785 
	C206.847595,24.325697 212.249008,28.466095 213.641632,37.619438 
	C215.488953,49.761196 218.400177,61.740131 220.813858,73.797112 
	C221.904541,79.245354 224.892426,81.712135 230.550964,82.206787 
	C239.826294,83.017609 249.090942,83.969795 258.342712,85.016167 
	C260.283783,85.235710 262.432587,85.717003 263.979492,86.800430 
	C265.982758,88.203537 268.700562,90.242561 268.841003,92.172920 
	C268.975342,94.019554 266.283539,96.147560 264.669495,98.009308 
	C264.001251,98.780075 262.904999,99.179756 262.898102,99.184113 
	C269.281128,110.971977 275.591797,122.626274 281.899017,134.640533 
M169.704651,90.130150 
	C139.022675,95.422905 108.256706,98.983078 77.010185,94.559433 
	C77.010185,96.748390 76.909721,98.888138 77.027832,101.015762 
	C77.501251,109.544258 79.351410,111.351234 88.131020,112.033897 
	C88.463165,112.059723 88.796593,112.100250 89.128532,112.093018 
	C107.432068,111.693962 125.755272,111.689278 144.033768,110.783035 
	C165.200409,109.733597 186.065155,106.559601 205.794296,98.219498 
	C218.893097,92.682236 219.320160,91.729088 216.070190,78.285736 
	C215.967438,77.860687 215.717392,77.471237 216.118942,78.370216 
	C200.688690,82.328308 185.625946,86.192123 169.704651,90.130150 
z"/>
<path fill="#0D0908" opacity="1.000000" stroke="none" 
	d="
M257.989105,134.003372 
	C255.327393,133.692917 253.638229,134.493561 253.576996,137.825760 
	C251.337097,136.321381 249.449661,134.547989 247.639053,132.846771 
	C244.642288,136.347168 241.796906,139.670715 238.984039,142.998520 
	C239.016541,143.002762 239.014709,142.936905 238.739319,142.852356 
	C238.051514,143.153503 237.639099,143.539230 236.955826,143.921295 
	C236.324203,143.932251 235.963455,143.946884 235.359741,143.665863 
	C232.255234,135.990829 229.393723,128.611435 226.226562,120.443871 
	C206.187561,127.524544 193.288422,144.799484 174.995255,152.922684 
	C177.330811,153.958603 179.265045,154.816528 180.596863,155.748657 
	C169.023514,156.477524 158.052551,157.132187 147.057617,157.514496 
	C147.028854,156.874542 147.024078,156.506912 147.432587,156.055420 
	C151.129990,155.604385 154.486252,155.528687 157.666412,154.741470 
	C159.153992,154.373245 161.013977,152.862900 161.469482,151.466980 
	C162.846603,147.246719 163.618927,142.829102 164.759949,138.251617 
	C164.827881,137.758789 164.762817,137.502747 164.697754,137.246719 
	C164.401169,137.432907 164.104584,137.619095 163.463348,137.872070 
	C154.174576,141.812469 145.412369,146.228271 136.205078,149.317642 
	C131.970459,150.738525 126.863533,149.559647 121.118217,149.559647 
	C119.813728,151.908035 117.674210,155.462219 115.881111,159.183319 
	C115.393417,160.195435 115.949928,161.710724 115.658432,162.988556 
	C114.534248,163.778305 113.445930,164.444321 113.075462,165.391190 
	C109.752281,173.884628 106.163902,182.338425 106.613327,191.830612 
	C105.410515,194.237732 104.499916,196.579910 103.825394,198.988205 
	C102.684006,203.063370 100.997040,203.838730 97.512222,201.465942 
	C96.336395,200.665359 95.377319,199.443970 94.546249,198.256027 
	C88.877563,190.153183 87.062469,180.811035 87.098663,171.266846 
	C87.133560,162.067963 88.289894,152.873306 88.975204,143.376587 
	C80.765747,146.942490 72.166153,150.677856 61.894417,155.139542 
	C64.194054,146.209885 66.131912,138.685059 68.106094,131.019165 
	C66.515373,131.145599 64.389816,130.864914 62.616135,131.526962 
	C48.959980,136.624237 39.917465,146.250946 37.288719,160.597565 
	C34.518909,175.714066 38.434673,189.463409 51.136833,198.809753 
	C57.668285,203.615631 65.921890,206.081009 72.525299,209.193085 
	C72.689377,210.167221 72.635262,211.646103 73.187866,212.845444 
	C78.170639,223.659790 79.972435,234.136353 69.324463,244.357193 
	C76.923203,249.635605 83.605499,255.720093 91.423492,259.375854 
	C103.678986,265.106598 116.701431,269.197174 129.246155,274.372925 
	C128.723633,275.175232 128.354019,275.586975 127.984406,275.998749 
	C126.169571,275.523926 124.376724,274.890442 122.531517,274.634735 
	C121.453178,274.485352 120.291222,274.939484 119.084435,275.463715 
	C99.209396,270.164215 81.197182,261.356415 67.512268,247.083054 
	C60.413071,248.145325 54.042049,249.098633 47.278862,250.110626 
	C48.928886,242.063736 50.310043,235.328049 51.691200,228.592377 
	C51.301479,228.448395 50.911762,228.304428 50.522041,228.160446 
	C49.645130,229.167847 48.768223,230.175247 47.754951,231.339310 
	C47.387829,231.037445 46.865932,230.827835 46.757133,230.486526 
	C44.406754,223.113678 43.301090,215.804794 45.273170,207.971420 
	C46.038269,204.932343 45.303719,200.130508 43.283333,197.991333 
	C24.676842,178.290848 28.604805,147.177658 49.673840,131.575409 
	C50.051189,131.295975 50.542149,131.169952 51.766216,130.617645 
	C45.566387,129.386353 40.604198,128.400848 35.561943,126.923279 
	C49.654690,126.956543 63.827496,127.481888 78.000305,128.007233 
	C78.002571,128.777527 78.004837,129.547821 77.738037,130.918442 
	C71.447296,132.941650 67.430389,140.077286 68.536682,147.304535 
	C77.681831,143.704788 86.846420,140.097382 97.274834,135.992508 
	C90.457962,156.746506 88.889473,175.795425 98.437614,194.362717 
	C100.486015,189.245651 101.633011,184.102570 103.031731,179.028885 
	C107.499817,162.821457 113.468628,147.383926 126.575089,135.914185 
	C129.890366,133.012924 133.546646,130.501328 137.046219,127.810677 
	C145.940857,125.893608 154.826126,123.930031 163.744278,122.129448 
	C164.663712,121.943817 165.779419,122.730377 166.486633,123.506241 
	C163.882019,124.294525 161.583786,124.998520 159.309616,124.927895 
	C150.047775,124.640266 143.157516,128.539490 138.084244,136.139664 
	C136.490555,138.527161 134.546021,140.680450 132.762070,142.940948 
	C132.998138,143.337845 133.234222,143.734726 133.470291,144.131622 
	C135.471664,143.844788 137.727188,144.056839 139.432205,143.188278 
	C148.844177,138.393570 158.171494,133.424042 167.392761,128.272705 
	C168.795013,127.489357 169.492035,125.443604 170.515259,123.981766 
	C170.846893,123.961128 171.335556,124.075813 171.487091,123.899971 
	C174.897568,119.942245 179.746857,118.762459 184.415283,118.530724 
	C190.513092,118.228043 196.350159,113.750809 202.419632,117.589310 
	C195.024216,119.214935 187.851547,120.401001 180.753357,121.932236 
	C179.315933,122.242325 178.159851,123.856522 176.887054,124.884079 
	C176.900040,124.898666 176.919357,124.929535 176.735565,125.021164 
	C176.706467,125.395264 176.861160,125.677727 177.023773,126.261055 
	C176.987015,126.960587 176.942337,127.359261 176.605682,127.951851 
	C170.684082,133.132370 170.404175,140.444580 168.283020,146.941940 
	C168.262604,147.004486 170.054504,147.658676 171.294144,148.019226 
	C172.078537,147.717606 172.569092,147.433426 173.412994,147.086243 
	C179.225174,143.073151 184.684006,139.123047 190.144928,135.146393 
	C190.147003,135.119843 190.094833,135.130539 190.444275,135.177734 
	C191.562500,134.516876 192.331284,133.808807 193.051392,133.052612 
	C193.002716,133.004486 193.086288,133.112991 193.399841,133.137115 
	C194.207443,132.801056 194.701508,132.440887 195.491364,132.033936 
	C196.536697,131.368134 197.286240,130.749115 198.271301,130.013199 
	C198.696136,129.610779 198.885452,129.325256 199.063019,129.059906 
	C199.051285,129.080063 199.093719,129.105316 199.432465,129.041168 
	C207.374298,123.738029 214.305847,117.306862 223.860504,115.552643 
	C228.322128,114.733505 231.538071,115.752777 233.082123,120.570137 
	C234.503510,125.004807 236.421066,129.280441 238.120087,133.626129 
	C238.683182,133.654480 239.246277,133.682846 239.809387,133.711197 
	C242.016144,128.392410 244.222900,123.073616 246.128479,118.480721 
	C250.023895,123.578865 254.006500,128.791122 257.989105,134.003372 
M61.466557,213.120239 
	C57.367306,210.001770 53.268051,206.883301 48.638714,203.361588 
	C45.049320,208.903015 47.098751,215.059143 48.185089,221.248962 
	C51.102089,219.666412 53.611645,218.304916 56.121201,216.943405 
	C56.613644,217.191162 57.106087,217.438904 57.598530,217.686646 
	C56.638653,226.264023 55.678772,234.841385 54.589977,244.570755 
	C57.894855,243.327530 61.270702,242.607193 64.034790,240.897720 
	C69.025566,237.811127 72.194435,232.986343 70.811218,227.070862 
	C69.572701,221.774155 69.448143,215.135468 61.466557,213.120239 
z"/>
<path fill="#292929" opacity="1.000000" stroke="none" 
	d="
M78.445267,127.996452 
	C63.827496,127.481888 49.654690,126.956543 35.239105,126.719437 
	C34.116459,126.897026 33.236580,126.786385 32.095802,126.214493 
	C31.566383,125.795860 31.297869,125.838493 31.029354,125.881126 
	C27.315590,124.558670 24.049643,123.013229 27.949900,118.111893 
	C32.780170,116.018913 36.893414,114.070602 41.006657,112.122299 
	C49.834858,109.976555 58.655308,107.797958 67.497528,105.711647 
	C69.358803,105.272484 71.300003,105.172081 73.599739,104.862328 
	C73.657166,111.233612 77.408447,113.470497 82.509995,114.044914 
	C91.880173,115.099983 101.245407,116.455643 110.649857,116.900436 
	C136.148804,118.106461 161.506622,116.144348 186.186676,109.683533 
	C197.784332,106.647461 208.788513,101.169182 219.804626,96.225014 
	C222.197830,95.150925 223.490952,91.625824 225.962708,88.334984 
	C232.789230,86.984192 255.660049,89.206360 263.333069,92.824806 
	C260.154022,94.602982 257.709686,96.325272 255.011383,97.423714 
	C231.820221,106.864441 207.386215,111.622902 182.885513,115.878677 
	C163.010941,119.330910 143.032776,122.271439 123.021622,124.818901 
	C112.024124,126.218910 100.862114,126.316200 89.777275,127.046379 
	C86.143402,127.285751 82.518982,127.668488 78.445267,127.996452 
z"/>
<path fill="#EFDBC7" opacity="1.000000" stroke="none" 
	d="
M72.126480,54.033756 
	C72.376465,67.711357 72.626450,81.388962 72.895493,95.536285 
	C71.807457,96.080688 70.700378,96.155365 69.326187,96.115295 
	C62.828495,95.659927 56.274815,96.442612 50.429836,94.761391 
	C34.863716,90.283997 27.225754,72.032822 33.709866,56.702892 
	C39.964027,41.916622 57.291969,35.637379 71.662674,42.974075 
	C72.204376,43.250633 72.602570,43.808258 72.930176,44.872528 
	C72.564285,46.343941 72.335861,47.177731 72.027786,48.436157 
	C72.007591,50.585114 72.067032,52.309433 72.126480,54.033756 
z"/>
<path fill="#131313" opacity="1.000000" stroke="none" 
	d="
M41.003651,111.774796 
	C36.893414,114.070602 32.780170,116.018913 28.282986,117.968887 
	C32.031807,115.339783 36.164570,112.709000 40.655663,110.059540 
	C41.009548,110.503014 41.005096,110.965157 41.003651,111.774796 
z"/>
<path fill="#0D0908" opacity="1.000000" stroke="none" 
	d="
M31.253315,125.988205 
	C31.297869,125.838493 31.566383,125.795860 31.904106,125.934784 
	C31.973316,126.116341 31.477278,126.095276 31.253315,125.988205 
z"/>
<path fill="#030B10" opacity="1.000000" stroke="none" 
	d="
M148.973206,282.017487 
	C149.435089,282.019135 149.896957,282.020782 150.692078,282.435913 
	C150.705734,284.912354 150.386154,286.975311 150.044495,289.419739 
	C149.704178,291.210632 149.385941,292.620056 148.982468,294.406891 
	C150.972748,295.314117 152.851624,296.245819 154.787735,297.037476 
	C158.844360,298.696198 162.931122,300.281219 167.005493,301.896545 
	C167.004852,302.357056 167.004211,302.817596 167.006958,303.622925 
	C161.351898,301.871429 155.751984,299.594879 150.017471,297.732941 
	C144.966003,296.092834 145.387634,293.081604 147.287018,289.358734 
	C147.880417,288.195648 148.337006,286.962769 148.907974,285.020416 
	C148.964218,283.525146 148.968704,282.771332 148.973206,282.017487 
z"/>
<path fill="#132629" opacity="1.000000" stroke="none" 
	d="
M148.630081,281.981354 
	C148.968704,282.771332 148.964218,283.525146 148.926590,284.655762 
	C146.014145,285.334961 143.092529,286.029724 140.278580,285.726227 
	C139.298080,285.620483 138.583527,283.049042 138.314453,281.296875 
	C140.916412,281.002045 142.951431,281.013977 144.986450,281.025909 
	C146.086624,281.332367 147.186783,281.638794 148.630081,281.981354 
z"/>
<path fill="#010101" opacity="1.000000" stroke="none" 
	d="
M127.990143,276.365540 
	C128.354019,275.586975 128.723633,275.175232 129.663330,274.345917 
	C132.157455,274.337494 134.081467,274.746613 136.086578,275.304993 
	C136.439392,275.397156 136.711121,275.340057 137.361938,275.262726 
	C139.490128,275.563995 141.239243,275.885498 142.991409,276.505768 
	C142.997879,277.203033 143.001297,277.601501 142.756897,278.277130 
	C140.688293,278.378143 138.870651,278.128906 137.045639,278.049866 
	C135.666397,277.990173 134.277740,278.148010 132.893265,278.209045 
	C131.505569,278.434784 130.117874,278.660553 128.375824,278.906647 
	C128.012924,278.195435 128.004395,277.463898 127.990143,276.365540 
z"/>
<path fill="#070A0B" opacity="1.000000" stroke="none" 
	d="
M132.997467,278.539459 
	C134.277740,278.148010 135.666397,277.990173 137.045639,278.049866 
	C138.870651,278.128906 140.688293,278.378143 143.088409,278.277130 
	C144.109894,277.999847 144.552063,277.999695 144.994232,277.999573 
	C144.994217,278.755798 144.994186,279.512054 144.990295,280.647095 
	C142.951431,281.013977 140.916412,281.002045 138.445358,280.985474 
	C136.373428,280.277191 134.737534,279.573547 132.997467,278.539459 
z"/>
<path fill="#EFDBC7" opacity="1.000000" stroke="none" 
	d="
M136.005493,275.155731 
	C134.081467,274.746613 132.157455,274.337494 129.816238,273.955383 
	C116.701431,269.197174 103.678986,265.106598 91.423492,259.375854 
	C83.605499,255.720093 76.923203,249.635605 69.324463,244.357193 
	C79.972435,234.136353 78.170639,223.659790 73.187866,212.845444 
	C72.635262,211.646103 72.689377,210.167221 72.525299,209.193085 
	C65.921890,206.081009 57.668285,203.615631 51.136833,198.809753 
	C38.434673,189.463409 34.518909,175.714066 37.288719,160.597565 
	C39.917465,146.250946 48.959980,136.624237 62.616135,131.526962 
	C64.389816,130.864914 66.515373,131.145599 68.106094,131.019165 
	C66.131912,138.685059 64.194054,146.209885 61.894417,155.139542 
	C72.166153,150.677856 80.765747,146.942490 88.975204,143.376587 
	C88.289894,152.873306 87.133560,162.067963 87.098663,171.266846 
	C87.062469,180.811035 88.877563,190.153183 94.546249,198.256027 
	C95.377319,199.443970 96.336395,200.665359 97.512222,201.465942 
	C100.997040,203.838730 102.684006,203.063370 103.825394,198.988205 
	C104.499916,196.579910 105.410515,194.237732 106.614395,192.259445 
	C107.751877,196.134705 108.489922,199.616348 109.116226,203.444733 
	C109.582489,204.959030 110.189217,206.113342 110.734085,207.296143 
	C116.516083,219.847656 126.842178,225.563065 140.069916,224.568817 
	C150.423630,223.790588 160.796082,221.616013 170.848816,218.906479 
	C182.730957,215.703888 189.903870,206.983124 192.928879,195.275269 
	C194.454056,189.372284 195.135284,183.153732 195.358688,177.047165 
	C195.501038,173.155945 197.000793,171.016983 200.343063,170.086823 
	C202.855438,169.387589 205.592468,168.867035 208.131531,169.149017 
	C209.465103,169.297104 211.413315,171.193268 211.654663,172.553619 
	C212.436646,176.961319 212.467773,181.495987 212.950119,185.964264 
	C214.318207,198.637650 221.856842,209.291504 232.072296,210.653412 
	C247.486450,212.708435 262.206818,209.883606 275.273102,200.790039 
	C277.107178,199.513596 278.824799,198.069855 280.596344,196.703552 
	C279.844482,237.002563 251.877670,258.976990 224.138672,268.337341 
	C221.728409,269.141144 219.589249,269.731079 216.943359,270.568481 
	C216.290161,270.900116 216.143707,270.984283 215.997269,271.068481 
	C214.560211,271.358398 213.123154,271.648315 211.023193,272.018219 
	C209.994690,272.280396 209.629074,272.462585 209.263458,272.644775 
	C208.684662,272.713623 208.105881,272.782532 206.954071,272.925751 
	C205.997742,273.135101 205.614441,273.270142 205.231125,273.405151 
	C202.408035,273.894592 199.584961,274.384033 196.028748,274.934814 
	C194.170776,275.254639 193.045959,275.513092 191.921143,275.771545 
	C190.868393,275.840454 189.815643,275.909332 188.126846,276.024902 
	C187.331879,276.136017 187.172943,276.200470 187.014023,276.264893 
	C183.956177,276.516113 180.898346,276.767334 176.976379,277.039124 
	C174.065720,277.245209 172.019196,277.430756 169.972656,277.616333 
	C164.622498,277.449463 159.272339,277.282593 153.214325,277.077087 
	C152.339142,277.081024 152.171814,277.123566 152.004486,277.166107 
	C149.933319,276.913635 147.862137,276.661163 145.090942,276.284760 
	C143.923386,276.176208 143.455872,276.191620 142.988358,276.207001 
	C141.239243,275.885498 139.490128,275.563995 137.128418,275.147736 
	C136.345718,275.087219 136.175613,275.121460 136.005493,275.155731 
M67.989548,192.993744 
	C67.989548,192.993744 67.920746,192.930710 67.900032,192.182343 
	C68.488945,190.247147 69.077858,188.311935 69.666771,186.376740 
	C67.521751,186.642624 66.008209,187.346390 65.059853,188.510559 
	C64.052773,189.746811 63.581825,191.419815 62.876759,192.902100 
	C62.144115,192.285507 61.411476,191.668930 60.678833,191.052353 
	C61.540707,188.834442 62.402580,186.616531 63.930485,182.684662 
	C59.814754,184.833069 56.889397,186.360107 53.553600,188.101379 
	C54.115318,185.921402 54.556164,184.210510 55.127605,181.992783 
	C52.737328,182.376816 51.197655,182.624176 49.378853,182.916397 
	C49.558201,181.247574 49.692646,179.996552 49.678516,180.128036 
	C47.054798,177.027466 45.308002,174.963196 43.561207,172.898941 
	C43.272182,173.094833 42.983162,173.290726 42.694138,173.486633 
	C45.429562,179.489655 48.164986,185.492676 51.063942,191.854584 
	C52.687187,191.649048 54.573593,191.410172 56.665020,191.145340 
	C56.965389,192.815826 57.220135,194.232590 57.474880,195.649338 
	C57.848396,195.399734 58.221909,195.150146 58.595421,194.900543 
	C60.148651,196.673935 61.701881,198.447342 63.722717,200.754608 
	C65.884903,199.693771 68.753372,198.286392 71.606995,196.886307 
	C71.874847,198.149506 72.143158,199.414856 72.620186,201.664566 
	C76.120277,199.418747 79.122551,197.492355 82.124817,195.565979 
	C81.842255,195.135147 81.559685,194.704300 81.277122,194.273468 
	C79.666130,194.767822 78.055145,195.262161 75.396027,196.078140 
	C76.827972,192.630188 77.866264,190.130096 78.935608,187.555237 
	C74.044167,187.093002 73.425919,187.416000 67.989548,192.993744 
M219.317291,237.922562 
	C234.172729,231.963547 241.314911,224.639145 241.081711,215.325058 
	C240.217819,216.076294 239.539261,216.808090 238.731842,217.346680 
	C230.100433,223.104126 222.856964,231.059387 212.400024,233.929001 
	C197.407990,238.043152 182.847839,236.750412 168.663376,230.531281 
	C167.253632,229.913162 165.830536,229.325516 163.386383,228.287460 
	C172.577744,240.973541 196.790070,244.880234 219.317291,237.922562 
z"/>
<path fill="#1A2A2F" opacity="1.000000" stroke="none" 
	d="
M167.431427,301.927490 
	C162.931122,300.281219 158.844360,298.696198 154.787735,297.037476 
	C152.851624,296.245819 150.972748,295.314117 148.982468,294.406891 
	C149.385941,292.620056 149.704178,291.210632 150.424973,289.407532 
	C151.848099,289.025208 152.868668,289.036591 153.912689,289.450684 
	C153.809631,292.734558 155.150742,293.901001 158.065048,294.081024 
	C161.889755,294.317291 163.429367,292.336334 164.293121,289.127747 
	C165.007187,289.497375 165.473038,289.764069 165.954620,290.420105 
	C166.937912,296.140045 167.889236,296.639435 174.203888,295.281891 
	C175.261429,295.698334 176.113861,295.856567 176.966278,296.014801 
	C176.966278,298.120880 176.966278,300.226959 176.966278,303.009644 
	C173.551880,302.615631 170.704620,302.287079 167.431427,301.927490 
z"/>
<path fill="#141E22" opacity="1.000000" stroke="none" 
	d="
M165.938873,290.030762 
	C165.473038,289.764069 165.007187,289.497375 164.240845,288.774841 
	C162.655319,287.916382 161.370285,287.513824 160.085236,287.111267 
	C160.001465,288.594940 159.917694,290.078644 159.833923,291.562317 
	C159.374969,291.557465 158.916000,291.552643 158.457031,291.547791 
	C158.161896,289.873108 157.866760,288.198425 157.571609,286.523773 
	C156.910690,285.928497 156.249756,285.333221 155.588821,284.737976 
	C155.022308,286.174652 154.455795,287.611328 153.889267,289.047974 
	C152.868668,289.036591 151.848099,289.025208 150.447052,289.026031 
	C150.386154,286.975311 150.705734,284.912354 151.038300,282.448059 
	C155.804764,282.039124 160.558228,282.034271 165.311691,282.023407 
	C172.697296,282.006531 176.250259,285.243988 176.978851,292.693817 
	C177.058807,293.511383 177.002457,294.342346 176.987808,295.590942 
	C176.113861,295.856567 175.261429,295.698334 174.206833,294.928589 
	C174.561890,292.077179 174.536407,290.296265 171.766006,289.342102 
	C169.568802,288.585358 167.563004,286.909027 165.938873,290.030762 
z"/>
<path fill="#192529" opacity="1.000000" stroke="none" 
	d="
M223.582611,274.027100 
	C225.602066,278.580353 229.315765,276.702881 233.728943,276.795135 
	C232.177139,281.530426 230.734756,285.931885 228.807373,290.675232 
	C227.519287,290.980011 226.716171,290.942871 227.167984,290.963776 
	C227.584442,288.212097 228.867111,285.290588 228.032486,283.224396 
	C227.509384,281.929474 223.450531,280.943115 221.620438,281.602142 
	C219.683350,282.299652 218.507660,285.111603 216.728790,286.771881 
	C215.964371,284.695251 215.470566,282.846741 214.976761,280.998230 
	C214.705612,279.594025 214.434464,278.189850 214.092255,276.417725 
	C217.263855,275.584564 220.225830,274.806458 223.582611,274.027100 
z"/>
<path fill="#080E12" opacity="1.000000" stroke="none" 
	d="
M216.999390,287.000000 
	C218.507660,285.111603 219.683350,282.299652 221.620438,281.602142 
	C223.450531,280.943115 227.509384,281.929474 228.032486,283.224396 
	C228.867111,285.290588 227.584442,288.212097 227.167984,290.963776 
	C226.716171,290.942871 227.519287,290.980011 228.663177,291.011353 
	C229.502213,291.597717 230.000488,292.189850 230.769485,292.906189 
	C230.757156,293.517944 230.474091,294.005554 230.071732,294.750366 
	C229.212723,295.004761 228.473007,295.001953 227.362503,295.000000 
	C224.706894,293.347534 222.672119,290.327576 219.173859,293.802490 
	C218.321686,293.170715 217.776733,292.362976 217.111847,290.878662 
	C216.994385,289.134735 216.996887,288.067383 216.999390,287.000000 
z"/>
<path fill="#030305" opacity="1.000000" stroke="none" 
	d="
M216.728775,286.771881 
	C216.996887,288.067383 216.994385,289.134735 216.991119,290.602478 
	C212.394379,288.868805 211.128265,284.247101 214.624512,281.039612 
	C215.470566,282.846741 215.964371,284.695251 216.728775,286.771881 
z"/>
<path fill="#0D0908" opacity="1.000000" stroke="none" 
	d="
M170.099045,277.915833 
	C172.019196,277.430756 174.065720,277.245209 176.550018,277.125122 
	C174.733673,277.532196 172.479553,277.873779 170.099045,277.915833 
z"/>
<path fill="#0D0908" opacity="1.000000" stroke="none" 
	d="
M192.089874,276.054932 
	C193.045959,275.513092 194.170776,275.254639 195.645386,275.054993 
	C194.749634,275.521973 193.504120,275.930145 192.089874,276.054932 
z"/>
<path fill="#0D0908" opacity="1.000000" stroke="none" 
	d="
M142.991409,276.505768 
	C143.455872,276.191620 143.923386,276.176208 144.708267,276.317871 
	C145.017487,276.813538 145.009323,277.152130 144.997696,277.745178 
	C144.552063,277.999695 144.109894,277.999847 143.336212,278.000000 
	C143.001297,277.601501 142.997879,277.203033 142.991409,276.505768 
z"/>
<path fill="#0D0908" opacity="1.000000" stroke="none" 
	d="
M216.021362,271.319763 
	C216.143707,270.984283 216.290161,270.900116 216.689331,270.834106 
	C216.836838,271.320801 216.731628,271.789337 216.626419,272.257874 
	C216.432770,272.028931 216.239105,271.799957 216.021362,271.319763 
z"/>
<path fill="#0D0908" opacity="1.000000" stroke="none" 
	d="
M152.094009,277.311188 
	C152.171814,277.123566 152.339142,277.081024 152.748688,277.130096 
	C152.721786,277.299927 152.452667,277.378113 152.094009,277.311188 
z"/>
<path fill="#0D0908" opacity="1.000000" stroke="none" 
	d="
M187.115723,276.400024 
	C187.172943,276.200470 187.331879,276.136017 187.742310,276.125641 
	C187.735016,276.298218 187.476227,276.416687 187.115723,276.400024 
z"/>
<path fill="#0D0908" opacity="1.000000" stroke="none" 
	d="
M205.538177,273.535950 
	C205.614441,273.270142 205.997742,273.135101 206.687561,273.050659 
	C206.611130,273.289703 206.228180,273.478241 205.538177,273.535950 
z"/>
<path fill="#0D0908" opacity="1.000000" stroke="none" 
	d="
M209.578033,272.708282 
	C209.629074,272.462585 209.994690,272.280396 210.675018,272.143372 
	C210.623993,272.382935 210.258286,272.577362 209.578033,272.708282 
z"/>
<path fill="#5C5148" opacity="1.000000" stroke="none" 
	d="
M109.227982,203.097992 
	C108.489922,199.616348 107.751877,196.134705 107.012756,192.224228 
	C106.163902,182.338425 109.752281,173.884628 113.075462,165.391190 
	C113.445930,164.444321 114.534248,163.778305 116.016479,162.860107 
	C121.168785,161.501831 125.594292,160.265518 130.251984,159.341400 
	C136.016632,159.031342 141.549118,158.409088 147.081589,157.786850 
	C158.052551,157.132187 169.023514,156.477524 180.550797,155.802444 
	C181.107117,155.782028 181.353683,155.926743 181.839294,155.951355 
	C184.853180,156.164429 187.381454,156.352905 190.113541,156.798660 
	C191.111954,158.639832 191.906570,160.223694 192.701172,161.807571 
	C192.707687,161.318878 192.714203,160.830170 192.720703,160.341461 
	C198.983917,159.881287 205.253281,159.487350 211.505234,158.906113 
	C212.785843,158.787079 214.157852,158.184143 215.214325,157.424179 
	C217.481628,155.793228 219.301331,153.163757 221.781723,152.273926 
	C230.149017,149.272171 238.725067,146.852310 247.642853,144.189514 
	C251.042480,143.750793 254.020538,143.332504 256.998596,142.914215 
	C260.747375,144.871506 264.496155,146.828812 268.331512,149.250153 
	C255.580734,151.763718 242.608292,153.212036 229.949585,156.056564 
	C220.151337,158.258316 217.846985,165.729340 222.923218,175.347733 
	C223.347763,176.834274 224.073593,177.937714 223.980316,178.966919 
	C223.332916,186.110275 226.628296,191.927231 230.148010,198.091232 
	C233.389038,199.308502 236.623871,201.183762 239.595016,200.831970 
	C247.088943,199.944656 254.576569,198.461884 261.856018,196.453934 
	C269.510956,194.342392 273.567841,188.232529 274.703400,180.810333 
	C276.366272,169.941803 277.558868,158.895493 270.731689,148.982346 
	C271.506134,146.998550 272.280579,145.014740 273.116516,142.694855 
	C274.499390,142.257874 275.842560,141.956070 277.137665,142.096786 
	C280.062622,142.414612 285.295807,142.516754 285.473907,143.473221 
	C286.276398,147.781876 287.374756,152.448914 283.565186,156.588577 
	C282.152954,158.123199 282.098145,161.511734 282.413666,163.925461 
	C283.687225,173.667648 282.849884,183.072098 278.747192,192.760529 
	C276.987396,194.913025 275.740692,196.735931 274.071075,198.000473 
	C261.972534,207.163696 247.964279,209.271164 233.440247,207.664215 
	C229.624283,207.242035 225.484573,204.243317 222.676117,201.299576 
	C215.624084,193.907791 215.801315,183.989334 215.114136,174.607895 
	C214.517761,166.466248 214.112732,165.665436 205.861877,165.941650 
	C203.124298,166.033310 200.274902,166.692047 197.729630,167.718719 
	C193.760284,169.319794 191.520828,172.104019 191.874054,176.949677 
	C192.159515,180.865738 191.598114,184.915329 190.910568,188.817261 
	C188.721939,201.238297 182.780930,211.161133 170.244476,215.215988 
	C162.243362,217.803909 153.888031,219.587830 145.555771,220.796310 
	C131.041046,222.901474 118.717361,219.506561 111.837807,204.897324 
	C111.448738,204.071091 110.119591,203.687561 109.227982,203.097992 
M121.111038,202.971893 
	C121.111038,202.971893 121.127480,202.881561 120.882149,203.598267 
	C122.751465,209.148422 127.580574,212.055450 132.447388,212.646591 
	C140.031052,213.567734 147.981735,213.551910 155.501526,212.290970 
	C162.182648,211.170654 169.223038,208.915298 174.791122,205.194824 
	C183.372879,199.460678 188.553024,177.511963 185.081299,167.641190 
	C183.819946,164.054932 181.027939,162.903275 177.649948,163.070297 
	C165.406418,163.675690 153.078674,163.743973 140.964798,165.370850 
	C133.628296,166.356140 126.627151,169.838654 119.297729,172.816376 
	C116.239403,174.147675 115.121536,176.153610 115.801552,179.690842 
	C116.435799,182.990082 116.068748,186.481827 115.586632,190.282974 
	C115.923828,192.208664 115.880692,194.314987 116.688995,196.016937 
	C117.848549,198.458450 119.629135,200.605026 121.111038,202.971893 
z"/>
<path fill="#150F0B" opacity="1.000000" stroke="none" 
	d="
M109.116226,203.444733 
	C110.119591,203.687561 111.448738,204.071091 111.837807,204.897324 
	C118.717361,219.506561 131.041046,222.901474 145.555771,220.796310 
	C153.888031,219.587830 162.243362,217.803909 170.244476,215.215988 
	C182.780930,211.161133 188.721939,201.238297 190.910568,188.817261 
	C191.598114,184.915329 192.159515,180.865738 191.874054,176.949677 
	C191.520828,172.104019 193.760284,169.319794 197.729630,167.718719 
	C200.274902,166.692047 203.124298,166.033310 205.861877,165.941650 
	C214.112732,165.665436 214.517761,166.466248 215.114136,174.607895 
	C215.801315,183.989334 215.624084,193.907791 222.676117,201.299576 
	C225.484573,204.243317 229.624283,207.242035 233.440247,207.664215 
	C247.964279,209.271164 261.972534,207.163696 274.071075,198.000473 
	C275.740692,196.735931 276.987396,194.913025 278.686981,193.131485 
	C279.578308,194.030548 280.212555,195.146774 280.721558,196.483276 
	C278.824799,198.069855 277.107178,199.513596 275.273102,200.790039 
	C262.206818,209.883606 247.486450,212.708435 232.072296,210.653412 
	C221.856842,209.291504 214.318207,198.637650 212.950119,185.964264 
	C212.467773,181.495987 212.436646,176.961319 211.654663,172.553619 
	C211.413315,171.193268 209.465103,169.297104 208.131531,169.149017 
	C205.592468,168.867035 202.855438,169.387589 200.343063,170.086823 
	C197.000793,171.016983 195.501038,173.155945 195.358688,177.047165 
	C195.135284,183.153732 194.454056,189.372284 192.928879,195.275269 
	C189.903870,206.983124 182.730957,215.703888 170.848816,218.906479 
	C160.796082,221.616013 150.423630,223.790588 140.069916,224.568817 
	C126.842178,225.563065 116.516083,219.847656 110.734085,207.296143 
	C110.189217,206.113342 109.582489,204.959030 109.116226,203.444733 
z"/>
<path fill="#010101" opacity="1.000000" stroke="none" 
	d="
M228.007599,271.994537 
	C228.134857,272.131073 228.253693,272.274384 228.372513,272.417694 
	C228.287201,272.371521 228.201904,272.325378 228.051270,272.149231 
	C227.985947,272.019257 227.999161,272.001312 228.007599,271.994537 
z"/>
<path fill="#2A2A2A" opacity="1.000000" stroke="none" 
	d="
M72.107430,48.011520 
	C72.335861,47.177731 72.564285,46.343941 72.994598,45.238556 
	C75.246452,43.745560 77.286179,42.506573 79.348068,41.305645 
	C91.556435,34.195004 104.982643,30.589600 118.708740,28.120340 
	C136.374359,24.942375 154.236786,22.917404 172.171692,24.205000 
	C181.838547,24.899008 191.414017,27.243429 200.945129,29.249853 
	C204.372269,29.971310 206.212952,32.849361 206.960648,36.439640 
	C209.452530,48.405056 212.104294,60.337181 214.988419,73.636040 
	C204.855865,76.769165 194.939423,80.640350 184.664627,82.830200 
	C167.861755,86.411392 150.924210,89.932236 133.860489,91.559357 
	C116.323822,93.231560 98.568726,92.657257 80.907166,92.937195 
	C77.451714,92.991959 76.172920,90.728325 75.972458,87.393959 
	C75.405884,77.969803 74.662430,68.555801 73.920227,59.143188 
	C73.804169,57.671379 73.330460,56.227776 73.008102,53.954845 
	C72.698532,51.429546 72.402985,49.720535 72.107430,48.011520 
M187.654800,47.195553 
	C190.968750,45.900215 194.282684,44.604874 197.596634,43.309536 
	C197.430328,42.771145 197.264023,42.232758 197.097733,41.694366 
	C178.246735,49.405701 158.370956,52.431934 138.445175,54.742619 
	C118.170517,57.093769 97.894012,55.332291 77.586723,52.741280 
	C78.849792,53.736038 80.196564,54.735279 81.673401,54.995022 
	C89.795540,56.423519 97.929184,58.576160 106.097504,58.759533 
	C117.155281,59.007763 128.258850,57.843132 139.323242,57.021626 
	C155.570496,55.815300 171.427032,52.516426 187.654800,47.195553 
z"/>
<path fill="#FAFAFA" opacity="1.000000" stroke="none" 
	d="
M170.133942,90.093048 
	C185.625946,86.192123 200.688690,82.328308 216.118942,78.370216 
	C215.717392,77.471237 215.967438,77.860687 216.070190,78.285736 
	C219.320160,91.729088 218.893097,92.682236 205.794296,98.219498 
	C186.065155,106.559601 165.200409,109.733597 144.033768,110.783035 
	C125.755272,111.689278 107.432068,111.693962 89.128532,112.093018 
	C88.796593,112.100250 88.463165,112.059723 88.131020,112.033897 
	C79.351410,111.351234 77.501251,109.544258 77.027832,101.015762 
	C76.909721,98.888138 77.010185,96.748390 77.010185,94.559433 
	C108.256706,98.983078 139.022675,95.422905 170.133942,90.093048 
z"/>
<path fill="#684631" opacity="1.000000" stroke="none" 
	d="
M136.618042,127.870766 
	C133.546646,130.501328 129.890366,133.012924 126.575089,135.914185 
	C113.468628,147.383926 107.499817,162.821457 103.031731,179.028885 
	C101.633011,184.102570 100.486015,189.245651 98.437614,194.362717 
	C88.889473,175.795425 90.457962,156.746506 97.274834,135.992508 
	C86.846420,140.097382 77.681831,143.704788 68.536682,147.304535 
	C67.430389,140.077286 71.447296,132.941650 77.743164,131.303558 
	C81.374474,131.073730 84.731583,131.059128 88.919037,131.029663 
	C90.498810,130.982101 91.248253,130.949402 91.997688,130.916702 
	C98.721916,130.606461 105.446152,130.296204 112.977112,129.970184 
	C114.958389,129.677078 116.132942,129.399750 117.307487,129.122406 
	C120.906136,129.024246 124.504791,128.926102 128.822968,128.792969 
	C130.035767,128.534622 130.529022,128.311234 131.022278,128.087860 
	C132.744812,128.035522 134.467331,127.983192 136.618042,127.870766 
z"/>
<path fill="#674733" opacity="1.000000" stroke="none" 
	d="
M258.249786,134.114471 
	C254.006500,128.791122 250.023895,123.578865 246.128479,118.480721 
	C244.222900,123.073616 242.016144,128.392410 239.809387,133.711197 
	C239.246277,133.682846 238.683182,133.654480 238.120087,133.626129 
	C236.421066,129.280441 234.503510,125.004807 233.082123,120.570137 
	C231.538071,115.752777 228.322128,114.733505 223.860504,115.552643 
	C214.305847,117.306862 207.374298,123.738029 199.433441,128.675385 
	C201.669708,123.192383 200.647400,121.639587 194.842606,122.029747 
	C193.712769,122.105690 192.609680,122.516792 191.481400,122.689240 
	C186.614883,123.433037 181.743607,124.145569 176.874054,124.869492 
	C178.159851,123.856522 179.315933,122.242325 180.753357,121.932236 
	C187.851547,120.401001 195.024216,119.214935 202.586700,117.839722 
	C203.167740,117.798637 203.332703,117.824944 204.038239,117.778412 
	C205.422531,117.214401 206.266251,116.723228 207.109970,116.232048 
	C207.533310,116.191254 207.956635,116.150467 209.019623,116.061462 
	C210.090408,115.957268 210.521530,115.901283 210.952652,115.845306 
	C211.774094,115.643608 212.595551,115.441902 214.041946,115.118027 
	C215.460983,114.695862 216.255066,114.395859 217.049149,114.095856 
	C217.491425,114.072540 217.933685,114.049225 219.012589,113.977249 
	C220.193008,113.657631 220.736786,113.386658 221.280579,113.115685 
	C222.383865,112.975990 223.487137,112.836304 225.249420,112.423462 
	C233.704361,109.806824 241.500290,107.463356 249.296219,105.119888 
	C249.296219,105.119888 249.654739,105.123993 250.159714,105.067017 
	C251.439087,104.664703 252.213486,104.319374 252.987885,103.974030 
	C253.423065,104.007523 253.858231,104.041016 254.804932,104.363159 
	C258.186768,107.493965 261.057037,110.336121 263.927338,113.178276 
	C264.066925,113.953583 264.206512,114.728882 263.819031,115.715271 
	C261.845947,116.854202 260.399933,117.782036 258.596527,118.939201 
	C260.061401,120.340637 261.001709,121.240204 261.942017,122.139771 
	C262.446564,122.982582 262.951111,123.825401 263.740173,125.178795 
	C264.643829,126.858276 265.263031,128.027191 265.882263,129.196091 
	C266.085114,130.308044 266.287994,131.419983 266.730713,133.186935 
	C267.024689,135.226715 267.078857,136.611511 267.132996,137.996292 
	C266.721436,138.572968 266.309875,139.149628 265.401306,139.506577 
	C263.293762,138.132141 261.683228,136.977448 260.072662,135.822739 
	C259.551941,135.290344 259.031189,134.757965 258.249786,134.114471 
z"/>
<path fill="#140C09" opacity="1.000000" stroke="none" 
	d="
M222.845428,174.930283 
	C217.846985,165.729340 220.151337,158.258316 229.949585,156.056564 
	C242.608292,153.212036 255.580734,151.763718 268.647400,149.378510 
	C269.290253,149.026703 269.703796,149.010544 270.424500,148.988358 
	C277.558868,158.895493 276.366272,169.941803 274.703400,180.810333 
	C273.567841,188.232529 269.510956,194.342392 261.856018,196.453934 
	C254.576569,198.461884 247.088943,199.944656 239.595016,200.831970 
	C236.623871,201.183762 233.389038,199.308502 230.570007,198.162170 
	C241.411148,200.859406 251.167679,197.493729 260.915863,194.122086 
	C266.537140,192.177826 270.386261,188.313736 271.396667,182.492676 
	C272.325348,177.142227 273.141144,171.561356 272.626434,166.214874 
	C271.538483,154.914017 268.727356,152.944366 257.728485,153.831284 
	C256.135864,153.959702 254.543365,154.089859 252.214890,154.278992 
	C258.519745,161.037628 261.895081,168.412643 262.069183,177.030472 
	C262.236176,185.298141 258.287140,189.404617 249.348770,190.489380 
	C242.318802,191.342529 238.507797,188.278412 236.881226,180.078369 
	C238.243973,181.052734 239.465683,182.189987 240.541183,183.451874 
	C243.636780,187.084000 247.398956,187.569519 251.801300,186.316559 
	C255.873169,185.157654 258.770844,183.106506 258.986115,178.565109 
	C259.356476,170.752655 257.259674,163.747055 251.693207,158.062561 
	C246.874741,153.141937 240.133286,154.848068 237.806015,161.406540 
	C237.452271,162.403412 236.546173,163.204285 235.582642,163.930283 
	C235.629150,161.907013 235.988586,160.049271 236.380295,158.024796 
	C223.249588,160.941940 223.251038,160.941971 222.997360,173.459351 
	C222.987396,173.950485 222.897873,174.440002 222.845428,174.930283 
z"/>
<path fill="#654532" opacity="1.000000" stroke="none" 
	d="
M170.076233,123.930237 
	C169.492035,125.443604 168.795013,127.489357 167.392761,128.272705 
	C158.171494,133.424042 148.844177,138.393570 139.432205,143.188278 
	C137.727188,144.056839 135.471664,143.844788 133.470291,144.131622 
	C133.234222,143.734726 132.998138,143.337845 132.762070,142.940948 
	C134.546021,140.680450 136.490555,138.527161 138.084244,136.139664 
	C143.157516,128.539490 150.047775,124.640266 159.309616,124.927895 
	C161.583786,124.998520 163.882019,124.294525 166.585327,123.866562 
	C167.880066,123.817223 168.758636,123.847969 170.076233,123.930237 
z"/>
<path fill="#E0D1C5" opacity="1.000000" stroke="none" 
	d="
M238.951523,142.994263 
	C241.796906,139.670715 244.642288,136.347168 247.639053,132.846771 
	C249.449661,134.547989 251.337097,136.321381 253.535172,138.246719 
	C254.421127,139.049347 254.996460,139.699997 255.247894,140.618469 
	C251.868256,141.404343 248.812485,141.922409 245.320068,142.453918 
	C242.906113,142.643005 240.928818,142.818634 238.951523,142.994263 
z"/>
<path fill="#0D0908" opacity="1.000000" stroke="none" 
	d="
M248.838318,105.082626 
	C241.500290,107.463356 233.704361,109.806824 225.502686,112.205826 
	C225.694733,111.377670 226.148865,109.885345 226.912659,109.705086 
	C234.038254,108.023430 241.217041,106.567017 248.838318,105.082626 
z"/>
<path fill="#0D0908" opacity="1.000000" stroke="none" 
	d="
M263.950623,112.769859 
	C261.057037,110.336121 258.186768,107.493965 255.131973,104.377518 
	C259.662048,103.351234 263.291656,106.671928 263.950623,112.769859 
z"/>
<path fill="#0D0908" opacity="1.000000" stroke="none" 
	d="
M245.756729,142.440460 
	C248.812485,141.922409 251.868256,141.404343 255.319305,140.871246 
	C256.115570,141.328064 256.516510,141.799896 256.958038,142.592972 
	C254.020538,143.332504 251.042480,143.750793 247.325714,143.958740 
	C246.310257,143.312408 246.033493,142.876434 245.756729,142.440460 
z"/>
<path fill="#0D0908" opacity="1.000000" stroke="none" 
	d="
M261.964569,121.758286 
	C261.001709,121.240204 260.061401,120.340637 258.596527,118.939201 
	C260.399933,117.782036 261.845947,116.854202 263.646240,115.883965 
	C263.329407,117.686646 262.658264,119.531723 261.964569,121.758286 
z"/>
<path fill="#0D0908" opacity="1.000000" stroke="none" 
	d="
M267.479614,137.954025 
	C267.078857,136.611511 267.024689,135.226715 266.970337,133.425934 
	C268.340729,133.583755 269.711334,134.157593 272.312469,135.246613 
	C270.068237,136.579849 268.947235,137.245804 267.479614,137.954025 
z"/>
<path fill="#0D0908" opacity="1.000000" stroke="none" 
	d="
M260.052246,136.203339 
	C261.683228,136.977448 263.293762,138.132141 265.117737,139.548279 
	C261.763550,141.693359 260.425232,139.914764 260.052246,136.203339 
z"/>
<path fill="#0D0908" opacity="1.000000" stroke="none" 
	d="
M266.038177,128.853058 
	C265.263031,128.027191 264.643829,126.858276 263.972107,125.359451 
	C266.692719,124.872932 267.647888,125.904358 266.038177,128.853058 
z"/>
<path fill="#0D0908" opacity="1.000000" stroke="none" 
	d="
M91.943489,130.591721 
	C91.248253,130.949402 90.498810,130.982101 89.375008,130.983734 
	C89.963524,130.724014 90.926407,130.495377 91.943489,130.591721 
z"/>
<path fill="#0D0908" opacity="1.000000" stroke="none" 
	d="
M252.786041,103.722908 
	C252.213486,104.319374 251.439087,104.664703 250.331741,105.016541 
	C250.860580,104.505966 251.722382,103.988876 252.786041,103.722908 
z"/>
<path fill="#0D0908" opacity="1.000000" stroke="none" 
	d="
M130.979904,127.777245 
	C130.529022,128.311234 130.035767,128.534622 129.266785,128.689301 
	C129.216171,127.906181 129.441269,127.191772 129.666382,126.477364 
	C130.090103,126.807129 130.513809,127.136887 130.979904,127.777245 
z"/>
<path fill="#3B3229" opacity="1.000000" stroke="none" 
	d="
M72.027786,48.436157 
	C72.402985,49.720535 72.698532,51.429546 73.003632,53.528664 
	C73.013184,53.918770 72.567253,53.956398 72.346863,53.995079 
	C72.067032,52.309433 72.007591,50.585114 72.027786,48.436157 
z"/>
<path fill="#0D0908" opacity="1.000000" stroke="none" 
	d="
M216.855652,113.827377 
	C216.255066,114.395859 215.460983,114.695862 214.334457,114.978561 
	C214.888718,114.493820 215.775436,114.026367 216.855652,113.827377 
z"/>
<path fill="#0D0908" opacity="1.000000" stroke="none" 
	d="
M206.954041,115.963013 
	C206.266251,116.723228 205.422531,117.214401 204.287567,117.753510 
	C203.997009,117.401855 203.997665,117.002266 203.999176,116.301346 
	C204.000000,116.000000 204.002228,115.997070 204.002228,115.997070 
	C204.934189,115.896034 205.866150,115.795006 206.954041,115.963013 
z"/>
<path fill="#0D0908" opacity="1.000000" stroke="none" 
	d="
M116.918915,129.085297 
	C116.132942,129.399750 114.958389,129.677078 113.415649,129.916504 
	C114.208420,129.601791 115.369385,129.324997 116.918915,129.085297 
z"/>
<path fill="#0D0908" opacity="1.000000" stroke="none" 
	d="
M220.958160,113.092239 
	C220.736786,113.386658 220.193008,113.657631 219.339706,113.917603 
	C219.565384,113.627335 220.100571,113.348061 220.958160,113.092239 
z"/>
<path fill="#0D0908" opacity="1.000000" stroke="none" 
	d="
M210.796204,115.646286 
	C210.521530,115.901283 210.090408,115.957268 209.332581,115.997360 
	C209.550507,115.803406 210.095139,115.625336 210.796204,115.646286 
z"/>
<path fill="#0D0908" opacity="1.000000" stroke="none" 
	d="
M203.998474,116.001144 
	C203.876602,115.859917 203.756256,115.717552 203.635895,115.575188 
	C203.721420,115.624153 203.806946,115.673111 203.947357,115.859573 
	C204.002228,115.997070 204.000000,116.000000 203.998474,116.001144 
z"/>
<path fill="#EDDAC7" opacity="1.000000" stroke="none" 
	d="
M181.353683,155.926743 
	C181.353683,155.926743 181.107117,155.782028 181.153198,155.728241 
	C179.265045,154.816528 177.330811,153.958603 174.995255,152.922684 
	C193.288422,144.799484 206.187561,127.524544 226.226562,120.443871 
	C229.393723,128.611435 232.255234,135.990829 235.166794,144.018188 
	C230.066528,146.472946 224.811111,148.034775 219.806854,150.181976 
	C216.980743,151.394592 214.567795,153.570190 211.536346,155.601822 
	C206.237457,156.266174 200.088226,157.037140 193.888657,157.814423 
	C192.807053,157.041672 191.401840,156.037735 189.633072,154.847839 
	C187.138351,154.441574 185.006882,154.090942 182.876282,154.096054 
	C182.367294,154.097275 181.861145,155.284836 181.353683,155.926743 
z"/>
<path fill="#674732" opacity="1.000000" stroke="none" 
	d="
M61.810616,213.271606 
	C69.448143,215.135468 69.572701,221.774155 70.811218,227.070862 
	C72.194435,232.986343 69.025566,237.811127 64.034790,240.897720 
	C61.270702,242.607193 57.894855,243.327530 54.589977,244.570755 
	C55.678772,234.841385 56.638653,226.264023 57.598530,217.686646 
	C57.106087,217.438904 56.613644,217.191162 56.121201,216.943405 
	C53.611645,218.304916 51.102089,219.666412 48.185089,221.248962 
	C47.098751,215.059143 45.049320,208.903015 48.638714,203.361588 
	C53.268051,206.883301 57.367306,210.001770 61.810616,213.271606 
z"/>
<path fill="#EAD8C7" opacity="1.000000" stroke="none" 
	d="
M130.019791,159.029190 
	C125.594292,160.265518 121.168785,161.501831 116.385239,162.866608 
	C115.949928,161.710724 115.393417,160.195435 115.881111,159.183319 
	C117.674210,155.462219 119.813728,151.908035 121.118217,149.559647 
	C126.863533,149.559647 131.970459,150.738525 136.205078,149.317642 
	C145.412369,146.228271 154.174576,141.812469 163.659393,138.053284 
	C164.342346,138.274597 164.484650,138.381500 164.626953,138.488403 
	C163.618927,142.829102 162.846603,147.246719 161.469482,151.466980 
	C161.013977,152.862900 159.153992,154.373245 157.666412,154.741470 
	C154.486252,155.528687 151.129990,155.604385 147.015915,155.999695 
	C140.797241,157.028305 135.408524,158.028748 130.019791,159.029190 
z"/>
<path fill="#6E472E" opacity="1.000000" stroke="none" 
	d="
M176.887054,124.884079 
	C181.743607,124.145569 186.614883,123.433037 191.481400,122.689240 
	C192.609680,122.516792 193.712769,122.105690 194.842606,122.029747 
	C200.647400,121.639587 201.669708,123.192383 199.094696,128.739532 
	C199.093719,129.105316 199.051285,129.080063 198.818115,129.163055 
	C198.401901,129.540741 198.218842,129.835434 198.035782,130.130112 
	C197.286240,130.749115 196.536697,131.368134 195.165070,132.025024 
	C194.057419,132.412918 193.571854,132.762955 193.086288,133.112991 
	C193.086288,133.112991 193.002716,133.004486 192.745667,133.135132 
	C191.690704,133.887360 190.892761,134.508942 190.094833,135.130539 
	C190.094833,135.130539 190.147003,135.119843 189.777374,135.116562 
	C184.884552,137.863693 180.291168,140.508362 175.883545,143.432968 
	C174.659286,144.245300 173.985809,145.887680 173.059647,147.149246 
	C172.569092,147.433426 172.078537,147.717606 171.265335,147.666199 
	C170.625427,141.297287 172.053787,135.953674 177.001068,132.371796 
	C177.362793,133.678818 177.723465,134.614044 178.084137,135.549255 
	C178.650360,135.082794 179.216583,134.616348 179.782806,134.149887 
	C178.855209,133.433258 177.927597,132.716629 176.999695,131.578400 
	C176.965469,130.023849 176.931564,128.890900 176.897644,127.757935 
	C176.942337,127.359261 176.987015,126.960587 177.006897,126.002808 
	C176.961166,125.272316 176.940262,125.100929 176.919357,124.929535 
	C176.919357,124.929535 176.900040,124.898666 176.887054,124.884079 
z"/>
<path fill="#1D1510" opacity="1.000000" stroke="none" 
	d="
M189.996643,155.033798 
	C191.401840,156.037735 192.807053,157.041672 193.888657,157.814423 
	C200.088226,157.037140 206.237457,156.266174 211.536346,155.601822 
	C214.567795,153.570190 216.980743,151.394592 219.806854,150.181976 
	C224.811111,148.034775 230.066528,146.472946 235.409760,144.313843 
	C235.963455,143.946884 236.324203,143.932251 237.302246,143.900482 
	C238.284607,143.567856 238.649658,143.252380 239.014709,142.936905 
	C239.014709,142.936905 239.016541,143.002762 238.984039,142.998505 
	C240.928818,142.818634 242.906113,142.643005 245.320068,142.453918 
	C246.033493,142.876434 246.310257,143.312408 246.904160,143.979156 
	C238.725067,146.852310 230.149017,149.272171 221.781723,152.273926 
	C219.301331,153.163757 217.481628,155.793228 215.214325,157.424179 
	C214.157852,158.184143 212.785843,158.787079 211.505234,158.906113 
	C205.253281,159.487350 198.983917,159.881287 192.720703,160.341461 
	C192.714203,160.830170 192.707687,161.318878 192.701172,161.807571 
	C191.906570,160.223694 191.111954,158.639832 190.136673,156.421112 
	C189.969559,155.535446 189.983109,155.284622 189.996643,155.033798 
z"/>
<path fill="#674733" opacity="1.000000" stroke="none" 
	d="
M173.412994,147.086243 
	C173.985809,145.887680 174.659286,144.245300 175.883545,143.432968 
	C180.291168,140.508362 184.884552,137.863693 189.775299,135.143097 
	C184.684006,139.123047 179.225174,143.073151 173.412994,147.086243 
z"/>
<path fill="#674733" opacity="1.000000" stroke="none" 
	d="
M176.999695,131.578400 
	C172.053787,135.953674 170.625427,141.297287 170.971512,147.683655 
	C170.054504,147.658676 168.262604,147.004486 168.283020,146.941940 
	C170.404175,140.444580 170.684082,133.132370 176.605698,127.951851 
	C176.931564,128.890900 176.965469,130.023849 176.999695,131.578400 
z"/>
<path fill="#291D15" opacity="1.000000" stroke="none" 
	d="
M130.251984,159.341400 
	C135.408524,158.028748 140.797241,157.028305 146.602631,156.083572 
	C147.024078,156.506912 147.028854,156.874542 147.057617,157.514496 
	C141.549118,158.409088 136.016632,159.031342 130.251984,159.341400 
z"/>
<path fill="#674733" opacity="1.000000" stroke="none" 
	d="
M190.444275,135.177734 
	C190.892761,134.508942 191.690704,133.887360 192.794342,133.183258 
	C192.331284,133.808807 191.562500,134.516876 190.444275,135.177734 
z"/>
<path fill="#674733" opacity="1.000000" stroke="none" 
	d="
M193.399841,133.137115 
	C193.571854,132.762955 194.057419,132.412918 194.869263,132.071808 
	C194.701508,132.440887 194.207443,132.801056 193.399841,133.137115 
z"/>
<path fill="#E0D1C5" opacity="1.000000" stroke="none" 
	d="
M238.739319,142.852356 
	C238.649658,143.252380 238.284607,143.567856 237.573120,143.904144 
	C237.639099,143.539230 238.051514,143.153503 238.739319,142.852356 
z"/>
<path fill="#674733" opacity="1.000000" stroke="none" 
	d="
M176.735565,125.021164 
	C176.940262,125.100929 176.961166,125.272316 176.998962,125.701950 
	C176.861160,125.677727 176.706467,125.395264 176.735565,125.021164 
z"/>
<path fill="#674733" opacity="1.000000" stroke="none" 
	d="
M198.271301,130.013199 
	C198.218842,129.835434 198.401901,129.540741 198.829865,129.142899 
	C198.885452,129.325256 198.696136,129.610779 198.271301,130.013199 
z"/>
<path fill="#EAD8C7" opacity="1.000000" stroke="none" 
	d="
M164.004028,137.986496 
	C164.104584,137.619095 164.401169,137.432907 164.697754,137.246719 
	C164.762817,137.502747 164.827881,137.758789 164.759949,138.251617 
	C164.484650,138.381500 164.342346,138.274597 164.004028,137.986496 
z"/>
<path fill="#0D0908" opacity="1.000000" stroke="none" 
	d="
M136.086578,275.304993 
	C136.175613,275.121460 136.345718,275.087219 136.749359,275.167969 
	C136.711121,275.340057 136.439392,275.397156 136.086578,275.304993 
z"/>
<path fill="#120D0B" opacity="1.000000" stroke="none" 
	d="
M218.934540,238.023468 
	C196.790070,244.880234 172.577744,240.973541 163.386383,228.287460 
	C165.830536,229.325516 167.253632,229.913162 168.663376,230.531281 
	C182.847839,236.750412 197.407990,238.043152 212.400024,233.929001 
	C222.856964,231.059387 230.100433,223.104126 238.731842,217.346680 
	C239.539261,216.808090 240.217819,216.076294 241.081711,215.325058 
	C241.314911,224.639145 234.172729,231.963547 218.934540,238.023468 
z"/>
<path fill="#B2A090" opacity="1.000000" stroke="none" 
	d="
M68.053337,193.061859 
	C73.425919,187.416000 74.044167,187.093002 78.935608,187.555237 
	C77.866264,190.130096 76.827972,192.630188 75.396027,196.078140 
	C78.055145,195.262161 79.666130,194.767822 81.277122,194.273468 
	C81.559685,194.704300 81.842255,195.135147 82.124817,195.565979 
	C79.122551,197.492355 76.120277,199.418747 72.620186,201.664566 
	C72.143158,199.414856 71.874847,198.149506 71.606995,196.886307 
	C68.753372,198.286392 65.884903,199.693771 63.722717,200.754608 
	C61.701881,198.447342 60.148651,196.673935 58.595421,194.900543 
	C58.221909,195.150146 57.848396,195.399734 57.474880,195.649338 
	C57.220135,194.232590 56.965389,192.815826 56.665020,191.145340 
	C54.573593,191.410172 52.687187,191.649048 51.063942,191.854584 
	C48.164986,185.492676 45.429562,179.489655 42.694138,173.486633 
	C42.983162,173.290726 43.272182,173.094833 43.561207,172.898941 
	C45.308002,174.963196 47.054798,177.027466 49.678516,180.128036 
	C49.692646,179.996552 49.558201,181.247574 49.378853,182.916397 
	C51.197655,182.624176 52.737328,182.376816 55.127605,181.992783 
	C54.556164,184.210510 54.115318,185.921402 53.553600,188.101379 
	C56.889397,186.360107 59.814754,184.833069 63.930485,182.684662 
	C62.402580,186.616531 61.540707,188.834442 60.678833,191.052353 
	C61.411476,191.668930 62.144115,192.285507 62.876759,192.902100 
	C63.581825,191.419815 64.052773,189.746811 65.059853,188.510559 
	C66.008209,187.346390 67.521751,186.642624 69.666771,186.376740 
	C69.077858,188.311935 68.488945,190.247147 67.741005,192.620911 
	C67.739098,193.060287 67.896217,193.061081 68.053337,193.061859 
z"/>
<path fill="#050C0E" opacity="1.000000" stroke="none" 
	d="
M153.912689,289.450714 
	C154.455795,287.611328 155.022308,286.174652 155.588821,284.737976 
	C156.249756,285.333221 156.910690,285.928497 157.571609,286.523773 
	C157.866760,288.198425 158.161896,289.873108 158.457031,291.547791 
	C158.916000,291.552643 159.374969,291.557465 159.833923,291.562317 
	C159.917694,290.078644 160.001465,288.594940 160.085236,287.111267 
	C161.370285,287.513824 162.655319,287.916382 163.992630,288.671875 
	C163.429367,292.336334 161.889755,294.317291 158.065048,294.081024 
	C155.150742,293.901001 153.809631,292.734558 153.912689,289.450714 
z"/>
<path fill="#0A0F12" opacity="1.000000" stroke="none" 
	d="
M165.954620,290.420105 
	C167.563004,286.909027 169.568802,288.585358 171.766006,289.342102 
	C174.536407,290.296265 174.561890,292.077179 174.001709,294.670380 
	C167.889236,296.639435 166.937912,296.140045 165.954620,290.420105 
z"/>
<path fill="#E9D7C6" opacity="1.000000" stroke="none" 
	d="
M116.142441,189.888824 
	C116.068748,186.481827 116.435799,182.990082 115.801552,179.690842 
	C115.121536,176.153610 116.239403,174.147675 119.849258,172.546387 
	C123.180519,171.806976 125.960258,171.337540 129.062149,170.813705 
	C127.929161,173.621826 127.066612,175.759659 126.115662,178.275894 
	C125.415665,182.802277 124.804070,186.950241 124.128860,191.464294 
	C128.520660,203.751038 133.941391,207.850296 144.250229,206.878296 
	C146.714188,206.645981 149.127640,205.907623 151.574142,205.455154 
	C159.286652,204.028732 164.851776,199.921112 166.700912,192.124161 
	C168.679688,183.780655 166.689713,176.287155 160.348877,170.208054 
	C159.368652,169.268280 158.361526,168.356567 157.366837,167.431885 
	C164.003098,166.271545 170.326553,166.442719 176.635376,166.212448 
	C180.963791,166.054428 182.757523,167.772278 182.478195,172.053284 
	C182.164185,176.865448 182.408249,181.741241 181.751450,186.498520 
	C180.015625,199.071793 174.182022,205.297363 161.840363,208.344681 
	C158.939651,209.060898 155.974167,209.520859 153.084839,210.276093 
	C141.123322,213.402740 130.114746,212.546646 121.127480,202.881561 
	C121.127480,202.881561 121.111038,202.971893 121.233788,202.556412 
	C119.618507,198.056900 117.880478,193.972855 116.142441,189.888824 
z"/>
<path fill="#EBD9C6" opacity="1.000000" stroke="none" 
	d="
M222.923218,175.347733 
	C222.897873,174.440002 222.987396,173.950485 222.997360,173.459351 
	C223.251038,160.941971 223.249588,160.941940 236.380295,158.024796 
	C235.988586,160.049271 235.629150,161.907013 235.634735,164.342499 
	C236.224319,170.046204 236.448853,175.172180 236.673401,180.298157 
	C238.507797,188.278412 242.318802,191.342529 249.348770,190.489380 
	C258.287140,189.404617 262.236176,185.298141 262.069183,177.030472 
	C261.895081,168.412643 258.519745,161.037628 252.214890,154.278992 
	C254.543365,154.089859 256.135864,153.959702 257.728485,153.831284 
	C268.727356,152.944366 271.538483,154.914017 272.626434,166.214874 
	C273.141144,171.561356 272.325348,177.142227 271.396667,182.492676 
	C270.386261,188.313736 266.537140,192.177826 260.915863,194.122086 
	C251.167679,197.493729 241.411148,200.859406 230.443771,197.806213 
	C226.628296,191.927231 223.332916,186.110275 223.980316,178.966919 
	C224.073593,177.937714 223.347763,176.834274 222.923218,175.347733 
z"/>
<path fill="#160D0A" opacity="1.000000" stroke="none" 
	d="
M121.004814,203.239914 
	C130.114746,212.546646 141.123322,213.402740 153.084839,210.276093 
	C155.974167,209.520859 158.939651,209.060898 161.840363,208.344681 
	C174.182022,205.297363 180.015625,199.071793 181.751450,186.498520 
	C182.408249,181.741241 182.164185,176.865448 182.478195,172.053284 
	C182.757523,167.772278 180.963791,166.054428 176.635376,166.212448 
	C170.326553,166.442719 164.003098,166.271545 157.366837,167.431885 
	C158.361526,168.356567 159.368652,169.268280 160.348877,170.208054 
	C166.689713,176.287155 168.679688,183.780655 166.700912,192.124161 
	C164.851776,199.921112 159.286652,204.028732 151.574142,205.455154 
	C149.127640,205.907623 146.714188,206.645981 144.250229,206.878296 
	C133.941391,207.850296 128.520660,203.751038 124.456223,191.507889 
	C125.384163,191.773300 126.030296,192.293686 126.441856,192.959167 
	C133.332916,204.101608 149.064285,206.867218 159.215256,198.455383 
	C161.129150,196.869431 162.682678,194.372833 163.470428,191.988495 
	C166.408173,183.096558 163.103821,174.656570 155.167953,169.706085 
	C150.130219,166.563492 135.649185,168.263809 131.152603,172.588333 
	C130.329239,173.380188 129.829376,174.500366 129.044357,175.342346 
	C128.179276,176.270203 127.157555,177.052048 126.204071,177.897491 
	C127.066612,175.759659 127.929161,173.621826 129.062149,170.813705 
	C125.960258,171.337540 123.180519,171.806976 119.938057,172.237808 
	C126.627151,169.838654 133.628296,166.356140 140.964798,165.370850 
	C153.078674,163.743973 165.406418,163.675690 177.649948,163.070297 
	C181.027939,162.903275 183.819946,164.054932 185.081299,167.641190 
	C188.553024,177.511963 183.372879,199.460678 174.791122,205.194824 
	C169.223038,208.915298 162.182648,211.170654 155.501526,212.290970 
	C147.981735,213.551910 140.031052,213.567734 132.447388,212.646591 
	C127.580574,212.055450 122.751465,209.148422 121.004814,203.239914 
z"/>
<path fill="#281B13" opacity="1.000000" stroke="none" 
	d="
M115.864532,190.085907 
	C117.880478,193.972855 119.618507,198.056900 121.250565,202.509216 
	C119.629135,200.605026 117.848549,198.458450 116.688995,196.016937 
	C115.880692,194.314987 115.923828,192.208664 115.864532,190.085907 
z"/>
<path fill="#0D0908" opacity="1.000000" stroke="none" 
	d="
M189.633072,154.847839 
	C189.983109,155.284622 189.969559,155.535446 189.932877,156.163818 
	C187.381454,156.352905 184.853180,156.164429 181.839294,155.951355 
	C181.861145,155.284836 182.367294,154.097275 182.876282,154.096054 
	C185.006882,154.090942 187.138351,154.441574 189.633072,154.847839 
z"/>
<path fill="#050505" opacity="1.000000" stroke="none" 
	d="
M187.290359,47.347137 
	C171.427032,52.516426 155.570496,55.815300 139.323242,57.021626 
	C128.258850,57.843132 117.155281,59.007763 106.097504,58.759533 
	C97.929184,58.576160 89.795540,56.423519 81.673401,54.995022 
	C80.196564,54.735279 78.849792,53.736038 77.586723,52.741280 
	C97.894012,55.332291 118.170517,57.093769 138.445175,54.742619 
	C158.370956,52.431934 178.246735,49.405701 197.097733,41.694366 
	C197.264023,42.232758 197.430328,42.771145 197.596634,43.309536 
	C194.282684,44.604874 190.968750,45.900215 187.290359,47.347137 
z"/>
<path fill="#6A4730" opacity="1.000000" stroke="none" 
	d="
M236.881210,180.078369 
	C236.448853,175.172180 236.224319,170.046204 235.947662,164.508026 
	C236.546173,163.204285 237.452271,162.403412 237.806015,161.406540 
	C240.133286,154.848068 246.874741,153.141937 251.693207,158.062561 
	C257.259674,163.747055 259.356476,170.752655 258.986115,178.565109 
	C258.770844,183.106506 255.873169,185.157654 251.801300,186.316559 
	C247.398956,187.569519 243.636780,187.084000 240.541183,183.451874 
	C239.465683,182.189987 238.243973,181.052734 236.881210,180.078369 
z"/>
<path fill="#674733" opacity="1.000000" stroke="none" 
	d="
M177.001068,132.371796 
	C177.927597,132.716629 178.855209,133.433258 179.782806,134.149887 
	C179.216583,134.616348 178.650360,135.082794 178.084137,135.549255 
	C177.723465,134.614044 177.362793,133.678818 177.001068,132.371796 
z"/>
<path fill="#EFDBC7" opacity="1.000000" stroke="none" 
	d="
M68.021439,193.027802 
	C67.896217,193.061081 67.739098,193.060287 67.751358,192.995102 
	C67.920746,192.930710 67.989548,192.993744 68.021439,193.027802 
z"/>
<path fill="#6B4730" opacity="1.000000" stroke="none" 
	d="
M126.115662,178.275894 
	C127.157555,177.052048 128.179276,176.270203 129.044357,175.342346 
	C129.829376,174.500366 130.329239,173.380188 131.152603,172.588333 
	C135.649185,168.263809 150.130219,166.563492 155.167953,169.706085 
	C163.103821,174.656570 166.408173,183.096558 163.470428,191.988495 
	C162.682678,194.372833 161.129150,196.869431 159.215256,198.455383 
	C149.064285,206.867218 133.332916,204.101608 126.441856,192.959167 
	C126.030296,192.293686 125.384163,191.773300 124.519829,191.141815 
	C124.804070,186.950241 125.415665,182.802277 126.115662,178.275894 
z"/>
</svg>